<svg xmlns="http://www.w3.org/2000/svg" viewBox="0 0 750 800"><path fill="#1f2937" d="M221 797c-81-19-155-83-195-158-30-57-52-157 41-170 11-3 43-2 41-16-1-7-9-14-15-18-14-11-34 4-50-2-9-5 16-25 18-34 11-25-17-36-41-39-11-2-18-7-8-13 47-25 37-35 47-78 6-28 19-54 21-84v-45C75 15 107-44 209 38c18 14 31 30 50 35 9 2 19 2 29 1 53-9 111-13 163-2 18 3 37 6 53-4 35-20 84-80 127-65 63 30 25 146 38 199 5 22 16 43 20 65 5 16 5 33 9 48 6 26 40 26 44 38 0 3-4 5-9 6l-26 7c-18 6-28 21-20 36 5 8 15 18 17 25 3 13-24 4-32 6-6 0-12 1-18 5-8 5-14 13-13 18 0 6 6 8 15 10 191 11 51 248-68 308-18 9-36 18-56 22-16 4-32 3-48 3-87-1-176 4-262-2h-1Z"/><path fill="#fdba74" d="M657 325c24-24-15-97-18-129-8-40 7-85 0-126-3-18-12-33-29-33-42 1-78 61-116 69-22 6-45-4-66-8-68-18-139 27-188 2-9-5-17-11-25-18-70-62-113-76-106 36 1 30 8 59 1 87-6 24-19 48-23 73-2 13-5 29 1 41 10 16 34 19 51 25 21 8 14 15-4 15-7 0-15 0-21 2-18 4-17 20 1 23 12 2 28-1 37 0 13 2 7 9 0 13-11 8-31 16-21 31 12 16 32 28 51 33 18 5 37 5 56 5 61-1 118-5 178-3 63 3 153 21 202-35 5-7 3-15-4-20-6-5-31-15-23-21 4-2 9-2 13-2 10 0 22 1 32-1 12-2 23-14 10-22-10-7-42 1-46-11 2-7 14-11 21-13 12-3 27-4 36-13Z"/><path fill="#dcfce7" d="M62 498c-47 14-31 71-21 101 37 106 176 175 319 179 143 5 291-54 343-169 6-14 12-29 16-43 25-78-143-83-192-85-97-4-206 4-298 11-65 5-116 9-147 5-6-1-12-1-20 1Z"/><path fill="#1f2937" d="M448 396c5 5 0 12-8 17-14 9-32 7-48 6-13-2-26-2-39 0-14 1-30 2-43-6-8-4-12-10-10-15 2-6 10-5 15-4l20 1c13 1 21-7 18-19-3-15-21-36-5-48 14-9 37-8 51-1s6 23 1 34c-6 13-8 30 9 34 9 1 22-2 30-2l9 2v1ZM201 293c8 10 25 1 35-1 9-2 17-2 26 0l27 9c6 2 16 6 19-3 2-7-8-23-18-29a67 67 0 0 0-53-11c-13 2-28 9-35 20-3 6-3 12-1 15Zm243-8c-2 5-5 12-1 16 9 7 30-8 51-10 13-1 27 2 41 2 5 0 11 0 14-5 2-4 0-11-6-16l-13-7c-28-12-71-10-86 19v1Z"/><path fill="#f97316" d="M349 568c15 0 39-22 49-7 6 9 3 30 4 43 0 14 1 32-4 40-7 11-21 5-30 1-9-5-20-11-30-9-8 2-17 8-27 15-49 33-119 36-166-2-59-52-6-95 58-105 34-6 69-4 100 7 16 7 28 19 45 17h1Zm-149 38c14-17-8-35-23-21-13 16 8 36 23 21Zm324-11c21-2 42 14 53 33 9 15 13 39-3 50-14 9-35 7-54 5-28-2-57-13-45-47 8-20 27-39 49-41m36-6c18 0 30-23 25-39-7-20-29-18-38-4-11 14-9 41 12 43h1Zm-52-5c17-1 23-24 17-38-8-19-31-20-38-2-6 15 4 40 21 40Zm75 11c-11 15-4 39 18 34 16-2 30-24 19-40-10-12-29-5-37 6Zm-112 20c12-3 17-17 14-28-6-22-33-30-39-6-3 15 9 36 25 34v-1"/></svg>